<?xml version="1.0" encoding="utf-8"?>
<!-- Generator: Adobe Illustrator 25.2.0, SVG Export Plug-In . SVG Version: 6.00 Build 0)  -->
<svg version="1.1" id="Layer_1" xmlns="http://www.w3.org/2000/svg" xmlns:xlink="http://www.w3.org/1999/xlink" x="0px" y="0px"
	 viewBox="0 0 500 500" fill="#b44335" style="enable-background:new 0 0 500 500;" xml:space="preserve">
<g>
	<polygon points="251.93,280.58 235.02,280.58 235.02,298.07 217.56,298.07 217.56,314.98 235.02,314.98 235.02,318.98 
		235.02,332.44 251.93,332.44 251.93,318.98 251.93,314.98 269.39,314.98 269.39,298.07 251.93,298.07 	"/>
	<path d="M422.32,238.08c-4.57-2.72-9.34-4.83-14.23-6.32V90.9H36.46v252.23H171.3c0.3,3.09,0.69,6.23,1.16,9.4v2.67h-34.93v24.15
		h41.36c5.71,15.27,14.13,24.57,25.46,28.19c3.32,1.06,6.7,1.55,10.13,1.55c18.76-0.02,38.47-14.73,54.64-29.75h37.9V355.2h-13.61
		c1.04-1,1.89-1.77,2.37-2.13c5.51-3.15,13.96-3.7,19.35-3.56c0.68,0.02,1.31,0.03,1.87,0.08c0.56-0.05,1.19-0.06,1.87-0.08
		c5.37-0.14,13.84,0.41,19.35,3.56c1.42,1.04,5.74,5.46,9.22,9.04c17.63,18.08,45.79,46.99,72.07,46.99c3.41,0,6.79-0.5,10.13-1.55
		c16.54-5.3,26.9-22.69,31.62-53.17C469.55,300.97,455,257.49,422.32,238.08z M60.61,115.05h323.33v114
		c-13.06,1.01-26.02,5.92-37.55,14.64c-11.11,7.23-22.87,8.48-29.4,8.53c-0.32,0.02-0.62,0-0.91-0.02c-0.24,0-0.47,0-0.68-0.02
		c-6.78-0.24-17.58-1.83-27.8-8.5c-23.17-17.54-52.22-19.7-75.93-5.61c-25.1,14.91-39.5,44.01-41.07,80.9H60.61V115.05z
		 M441.14,351.25c-3.29,21.21-9.57,34.31-17.69,36.9c-16.93,5.4-48.13-26.59-61.45-40.25c-1.78-1.83-3.31-3.4-4.66-4.77
		c-4.03-4.05-6.43-6.22-8.69-7.55c-10.79-6.31-24.65-6.69-31.62-6.38h-0.08c-6.97-0.3-20.81,0.08-31.61,6.38
		c-2.26,1.33-4.66,3.5-8.69,7.55c-1.36,1.37-2.9,2.94-4.68,4.77c-1.96,2.01-4.3,4.42-6.93,7.05c-7.76,7.74-18.01,17.4-28.09,24.41
		c-9.74,6.76-19.33,11.06-26.41,8.8c-3.46-1.1-6.57-4.09-9.27-8.8c-3.65-6.37-6.55-15.89-8.44-28.1
		c-1.77-11.41-2.38-22.23-1.9-32.27c1.4-29.46,12.29-52.19,31.12-63.39c16.77-9.96,36.77-8.27,53.46,4.51l0.57,0.41
		c11.52,7.59,23.38,10.57,32.59,11.59c0.02,0,0.05,0.02,0.09,0.02c0.63,0.09,3.56,0.48,8.01,0.48h0.42c4.44,0,7.37-0.39,8.01-0.48
		c0.02,0,0.06,0,0.08-0.02c9.21-1.03,21.09-4,32.59-11.59l0.57-0.41c7.98-6.1,16.71-9.67,25.48-10.66
		c8.21-0.94,16.45,0.42,24.15,4.11c1.3,0.6,2.58,1.28,3.83,2.04C437.19,270.59,448.11,306.34,441.14,351.25z"/>
	<circle cx="371.06" cy="306.51" r="8.45"/>
	<path d="M408.09,298.34c-0.66-0.18-1.36-0.27-2.08-0.27c-4.66,0-8.45,3.77-8.45,8.44c0,4.68,3.79,8.45,8.45,8.45
		c0.72,0,1.42-0.09,2.08-0.27c3.67-0.92,6.37-4.23,6.37-8.18C414.46,302.57,411.75,299.26,408.09,298.34z"/>
	<path d="M388.54,280.58c-1.71,0-3.28,0.5-4.6,1.37c-2.32,1.49-3.85,4.11-3.85,7.08c0,2.97,1.52,5.58,3.85,7.08
		c1.33,0.88,2.9,1.37,4.6,1.37c4.66,0,8.44-3.79,8.44-8.45C396.98,284.37,393.2,280.58,388.54,280.58z"/>
	<path d="M388.54,315.57c-1.71,0-3.28,0.5-4.6,1.37c-0.85,0.53-1.58,1.22-2.16,2.04c-1.07,1.4-1.69,3.15-1.69,5.04
		c0,4.66,3.77,8.45,8.45,8.45c4.66,0,8.44-3.79,8.44-8.45C396.98,319.35,393.2,315.57,388.54,315.57z"/>
</g>
</svg>
