<?xml version="1.0" encoding="utf-8"?>
<!-- Generator: Adobe Illustrator 25.2.0, SVG Export Plug-In . SVG Version: 6.00 Build 0)  -->
<svg version="1.1" id="Layer_1" xmlns="http://www.w3.org/2000/svg" xmlns:xlink="http://www.w3.org/1999/xlink" x="0px" y="0px"
	 viewBox="0 0 500 500" fill="#b44335" style="enable-background:new 0 0 500 500;" xml:space="preserve">
<style type="text/css">
	.st0{fill:fill="#b44335";}
</style>
<g>
	<path class="st0" d="M426.88,117.84h-253.7c-27.47,0-49.78,22.32-49.78,49.78v51.06h22.3v-51.06c0-15.16,12.32-27.49,27.49-27.49
		h253.7c15.14,0,27.49,12.32,27.49,27.49v164.76c0,15.14-12.34,27.49-27.49,27.49h-253.7c-15.16,0-27.49-12.34-27.49-27.49v-50.86
		h-22.3v50.86c0,27.45,22.32,49.78,49.78,49.78h253.7c27.45,0,49.78-22.34,49.78-49.78V167.62
		C476.67,140.16,454.33,117.84,426.88,117.84z"/>
	<path class="st0" d="M434.2,158.21c-4.35-4.36-11.41-4.36-15.76,0l-40,40.01l-42.68,42.66l-36.42,36.42L179.79,157.76
		c-4.35-4.35-11.41-4.35-15.76,0c-4.36,4.36-4.36,11.41,0,15.77l76.66,76.66l-76.56,76.56c-4.35,4.36-4.35,11.41,0,15.77
		c2.19,2.17,5.03,3.27,7.89,3.27s5.71-1.09,7.89-3.27l76.56-76.56l42.88,42.88l42.72-42.71l76.39,76.39
		c2.17,2.17,5.03,3.27,7.89,3.27c2.86,0,5.7-1.09,7.87-3.27c4.36-4.36,4.36-11.41,0-15.77l-76.39-76.39l76.39-76.39
		C438.56,169.63,438.56,162.56,434.2,158.21z"/>
	<path class="st0" d="M52.69,250.1c0,6.16,4.99,11.15,11.15,11.15h101.38c6.16,0,11.15-4.99,11.15-11.15
		c0-6.16-4.99-11.15-11.15-11.15H63.84C57.68,238.96,52.69,243.95,52.69,250.1z"/>
	<path class="st0" d="M113.48,199.14c0-6.16-4.99-11.15-11.15-11.15H34.48c-6.16,0-11.15,4.99-11.15,11.15
		c0,6.16,4.99,11.15,11.15,11.15h67.85C108.48,210.29,113.48,205.3,113.48,199.14z"/>
	<path class="st0" d="M102.33,287.78H48.78c-6.16,0-11.15,4.99-11.15,11.15s4.99,11.15,11.15,11.15h53.55
		c6.16,0,11.15-4.99,11.15-11.15S108.48,287.78,102.33,287.78z"/>
</g>
</svg>
