<?xml version="1.0" encoding="utf-8"?>
<!-- Generator: Adobe Illustrator 25.2.0, SVG Export Plug-In . SVG Version: 6.00 Build 0)  -->
<svg version="1.1" id="Layer_1" xmlns="http://www.w3.org/2000/svg" xmlns:xlink="http://www.w3.org/1999/xlink" x="0px" y="0px"
	 viewBox="0 0 500 500" fill="#b44335" style="enable-background:new 0 0 500 500;" xml:space="preserve">
<g>
	<path d="M250.5,237.4c36.66,0,66.49-29.83,66.49-66.49s-29.83-66.49-66.49-66.49s-66.49,29.83-66.49,66.49
		S213.84,237.4,250.5,237.4z M250.5,123.71c26.03,0,47.2,21.17,47.2,47.2c0,26.03-21.17,47.2-47.2,47.2s-47.2-21.17-47.2-47.2
		C203.3,144.88,224.47,123.71,250.5,123.71z"/>
	<path d="M126,230.41c20.93,0,37.96-17.02,37.96-37.95c0-20.93-17.03-37.96-37.96-37.96s-37.96,17.03-37.96,37.96
		C88.05,213.39,105.07,230.41,126,230.41z M126,171.28c11.68,0,21.18,9.5,21.18,21.18c0,11.68-9.5,21.18-21.18,21.18
		s-21.18-9.5-21.18-21.18C104.83,180.78,114.33,171.28,126,171.28z"/>
	<path d="M374.99,230.41c20.93,0,37.96-17.02,37.96-37.95c0-20.93-17.03-37.96-37.96-37.96c-20.93,0-37.96,17.03-37.96,37.96
		C337.04,213.39,354.06,230.41,374.99,230.41z M374.99,171.28c11.68,0,21.18,9.5,21.18,21.18c0,11.68-9.5,21.18-21.18,21.18
		c-11.68,0-21.18-9.5-21.18-21.18C353.82,180.78,363.32,171.28,374.99,171.28z"/>
	<path d="M413.83,222.29l-1.35-0.82l-1.01,1.22c-2.83,3.42-6.14,6.43-9.83,8.95l-2.53,1.73l2.72,1.41
		c19.43,10.11,31.5,29.95,31.5,51.78c0,1.46-0.06,3.01-0.18,4.71c-0.21,2.61-2.42,4.65-5.03,4.65h-51.54
		c-7.94-17.83-19.85-34.12-34.51-47.17c-2.1-1.86-4.22-3.64-6.34-5.3c3.75-3.43,7.93-6.35,12.43-8.68l2.72-1.41l-2.54-1.73
		c-3.69-2.51-7-5.52-9.83-8.95l-1.01-1.22l-1.35,0.82c-5.29,3.21-10.17,7.06-14.49,11.43c-4.53-2.75-9.24-5.24-14-7.4l-1.15-0.52
		l-0.9,0.89c-4.15,4.1-8.76,7.74-13.71,10.83l-3.14,1.96l3.47,1.3c6.23,2.34,12.34,5.26,18.15,8.68c2.79,1.64,5.54,3.41,8.16,5.25
		c0.87,0.61,1.74,1.24,2.6,1.89c3.28,2.43,6.5,5.1,9.56,7.92c10.64,9.77,19.31,21.22,25.77,34.06c1.98,3.91,3.75,7.99,5.29,12.13
		c0.1,0.25,0.18,0.5,0.28,0.77c1.74,4.79,3.17,9.7,4.25,14.6c1.87,8.4,2.82,17.06,2.82,25.73c0,3.25-0.13,6.47-0.38,9.58
		c-0.66,8.35-7.75,14.9-16.12,14.9H148.37c-8.38,0-15.46-6.54-16.12-14.9c-0.25-3.11-0.38-6.33-0.38-9.58
		c0-8.67,0.95-17.32,2.82-25.73c1.07-4.89,2.5-9.8,4.25-14.61c0.09-0.25,0.18-0.5,0.28-0.77c1.53-4.12,3.3-8.2,5.28-12.11
		c5.76-11.43,13.31-21.82,22.43-30.88c3.43-3.41,7.1-6.64,10.93-9.61c0.33-0.25,0.65-0.51,0.96-0.74l0.1-0.07
		c3.03-2.31,6.26-4.51,9.58-6.56c0.34-0.21,0.69-0.41,1.05-0.62c6.11-3.69,12.57-6.82,19.2-9.31l3.47-1.3l-3.14-1.96
		c-4.94-3.09-9.56-6.74-13.7-10.83l-0.9-0.89l-1.15,0.53c-4.86,2.23-9.56,4.72-13.99,7.41c-4.33-4.39-9.2-8.23-14.49-11.44
		l-1.35-0.82l-1.01,1.22c-2.83,3.42-6.14,6.43-9.83,8.95l-2.54,1.73l2.72,1.41c4.49,2.33,8.66,5.25,12.42,8.68
		c-3.14,2.47-6.24,5.14-9.24,7.95c-13.5,12.71-24.13,27.68-31.61,44.51H72.88c-2.6,0-4.81-2.04-5.03-4.63
		c-0.12-1.73-0.18-3.28-0.18-4.74c0-21.83,12.07-41.67,31.51-51.78l2.72-1.41l-2.53-1.73c-3.69-2.51-7-5.52-9.83-8.95l-1.01-1.22
		l-1.35,0.82c-22.72,13.78-36.28,37.8-36.28,64.27c0,1.99,0.08,4.02,0.24,6.04c0.9,11.27,10.45,20.09,21.74,20.09h45.35
		c-1.22,4.1-2.26,8.34-3.1,12.64c-1.7,8.66-2.56,17.57-2.56,26.48c0,3.71,0.15,7.45,0.44,11.11c1.46,18.31,16.99,32.66,35.35,32.66
		h204.26c18.36,0,33.89-14.34,35.35-32.65c0.3-3.66,0.44-7.4,0.44-11.12c0-8.9-0.86-17.81-2.55-26.48
		c-0.83-4.29-1.87-8.54-3.1-12.64h45.35c11.29,0,20.85-8.83,21.74-20.09c0.16-2.02,0.25-4.06,0.25-6.04
		C450.11,260.09,436.55,236.07,413.83,222.29z"/>
</g>
</svg>
