<?xml version="1.0" encoding="utf-8"?>
<!-- Generator: Adobe Illustrator 25.2.0, SVG Export Plug-In . SVG Version: 6.00 Build 0)  -->
<svg version="1.1" id="Layer_1" xmlns="http://www.w3.org/2000/svg" xmlns:xlink="http://www.w3.org/1999/xlink" x="0px" y="0px"
	 viewBox="0 0 500 500" fill="#b44335" style="enable-background:new 0 0 500 500;" xml:space="preserve">
<style type="text/css">
	.st0{fill:#b44335;}
</style>
<g>
	<path class="st0" d="M140.39,461.02c-3.59,0-7.44-0.48-11.49-1.65c-22.02-6.39-35.23-28.51-30.07-50.36
		c7.56-31.99,15.51-64.83,24.25-100.18c-26.15-22.06-51.74-43.68-76.87-65.2c-10.9-9.33-16.71-22.49-15.92-36.09
		c0.76-13.29,7.74-25.33,19.15-33.02c6.31-4.25,13.41-6.7,21.12-7.29l91.67-6.94c1.32-0.1,2.64-0.21,3.97-0.32
		c1.88-0.15,3.79-0.31,5.74-0.45c10.95-27.11,23.06-56.82,37.83-92.81c9.02-21.98,32.49-32.89,54.6-25.37
		c12.25,4.17,21.26,13.24,26.8,26.98c5.41,13.44,10.88,26.85,16.36,40.26c2.62,6.43,5.25,12.86,7.87,19.3
		c1.31,3.22,2.64,6.45,3.96,9.67c2.97,7.23,6.02,14.65,8.96,22.14c33.54,2.39,67.77,4.95,101.92,7.62c22.97,1.8,39.6,20,39.55,43.31
		c0.03,12.86-5.45,24.31-15.85,33.12l-19.09,16.17c-18.96,16.07-38.52,32.66-57.96,48.95c7.25,28.69,14.34,57.76,21.21,85.94
		l2.54,10.42c3.24,13.26,1.21,26.23-5.7,36.54c-6.76,10.08-17.6,16.72-30.54,18.68c-12.95,1.96-23.16-3.08-30.61-7.69
		c-9.79-6.06-19.59-12.11-29.38-18.16c-17.85-11.02-36.24-22.39-54.42-33.69c-18.58,11.61-37.41,23.24-55.68,34.52
		c-9.45,5.83-18.89,11.67-28.33,17.52C162.36,455.19,152.94,461.02,140.39,461.02z M250.1,77.33c-2.75,0-4.18,2.36-4.84,3.96
		c-15.98,38.94-28.85,70.52-40.48,99.39c-5.77,14.32-17.49,16.68-23.97,16.82c-3.63,0.07-7.44,0.39-11.47,0.72
		c-1.4,0.11-2.81,0.23-4.21,0.34l-91.67,6.94c-1.05,0.08-1.8,0.32-2.56,0.84c-1.45,0.98-2.23,2.13-2.3,3.41
		c-0.09,1.56,0.82,3.25,2.57,4.75c26.77,22.93,54.11,46.01,82.1,69.61c10.57,8.91,10.61,19.58,8.78,26.96
		c-9.39,37.89-17.86,72.82-25.88,106.77c-0.51,2.14,1.38,4.11,3.43,4.7c0.63,0.18,1.8,0.53,6.2-2.2
		c9.45-5.86,18.91-11.7,28.37-17.54c20.11-12.42,40.91-25.27,61.26-38.01c6.63-4.15,17.1-7.51,29.3,0.1
		c19.91,12.41,40.22,24.95,59.86,37.08c9.81,6.06,19.61,12.11,29.41,18.18c3.38,2.1,4.51,2.35,4.77,2.38
		c1.14-0.19,3.38-0.71,4.31-2.1c0.82-1.22,0.93-3.49,0.29-6.09l-2.54-10.42c-7.32-29.98-14.88-60.98-22.59-91.36
		c-2.97-11.69,0.34-21.64,9.82-29.57c20.71-17.34,41.69-35.12,61.98-52.32l19.1-16.19c2.29-1.94,2.28-2.86,2.28-3.76v-0.14
		c0.01-4.67-3.03-4.91-4.17-5c-36.32-2.84-72.74-5.55-108.26-8.07c-14.68-1.04-21.12-10.08-23.94-17.49
		c-3.53-9.27-7.42-18.73-11.17-27.88c-1.34-3.26-2.68-6.52-4.01-9.78c-2.62-6.42-5.23-12.84-7.85-19.26
		c-5.5-13.47-11-26.93-16.43-40.43c-1.76-4.38-2.93-4.78-3.56-4.99C251.32,77.43,250.68,77.33,250.1,77.33z"/>
</g>
</svg>
