<?xml version="1.0" encoding="utf-8"?>
<!-- Generator: Adobe Illustrator 25.2.0, SVG Export Plug-In . SVG Version: 6.00 Build 0)  -->
<svg version="1.1" id="Layer_1" xmlns="http://www.w3.org/2000/svg" xmlns:xlink="http://www.w3.org/1999/xlink" x="0px" y="0px"
	 viewBox="0 0 500 500" fill="#b44335" style="enable-background:new 0 0 500 500;" xml:space="preserve">
<style type="text/css">
	.st0{fill:fill="#b44335";}
</style>
<path class="st0" d="M484.52,300.95c0-46.52-35.86-86.35-86.17-101.95c-16.83-72.54-95.51-127.6-189.77-127.6
	c-106.47,0-193.1,70.27-193.1,156.63c0,40.48,19.41,79.41,53.65,108.43l-43.31,71.35l110.63-34.41
	c22.94,7.47,47.19,11.28,72.14,11.28c17.28,0,34.06-1.85,50.02-5.34c23.99,18.94,56.65,30.6,92.56,30.6
	c16.65,0,32.86-2.46,48.22-7.31l83.55,25.98l-32.98-54.35C472.05,354.32,484.52,328.15,484.52,300.95z M208.58,358.49
	c-23.53,0-46.3-3.79-67.67-11.23l-4.07-1.41l-52.76,16.39l19.62-32.31l-9.62-7.09c-33.8-24.96-52.43-58.64-52.43-94.81
	c0-71.93,74.88-130.44,166.91-130.44c76.5,0,141.13,40.41,160.79,95.37c-5.95-0.66-12.03-1.01-18.21-1.01
	c-73.53,0-133.36,48.9-133.36,109.01c0,20.34,6.84,39.38,18.78,55.69C227.49,357.86,218.13,358.49,208.58,358.49z M425.07,360.78
	l-9.62,7.11l9.2,15.17l-25.65-7.98l-4.07,1.43c-13.83,4.8-28.56,7.24-43.78,7.24c-22.17,0-42.79-5.24-59.91-14.18
	c-9.86-5.17-18.58-11.56-25.73-18.91c-13.49-13.86-21.53-31.09-21.53-49.72c0-45.67,48.08-82.82,107.17-82.82
	c8.26,0,16.31,0.73,24.04,2.11c9.36,1.66,18.24,4.26,26.48,7.68c33.69,13.97,56.65,41.46,56.65,73.03
	C458.33,323.7,446.51,344.94,425.07,360.78z"/>
</svg>
